<?xml version="1.0" encoding="utf-8" standalone="no"?>
<!DOCTYPE svg PUBLIC "-//W3C//DTD SVG 1.1//EN"
  "http://www.w3.org/Graphics/SVG/1.1/DTD/svg11.dtd">
<svg xmlns:xlink="http://www.w3.org/1999/xlink" width="592.925pt" height="590.077344pt" viewBox="0 0 592.925 590.077344" xmlns="http://www.w3.org/2000/svg" version="1.1">
 <metadata>
  <rdf:RDF xmlns:dc="http://purl.org/dc/elements/1.1/" xmlns:cc="http://creativecommons.org/ns#" xmlns:rdf="http://www.w3.org/1999/02/22-rdf-syntax-ns#">
   <cc:Work>
    <dc:type rdf:resource="http://purl.org/dc/dcmitype/StillImage"/>
    <dc:date>2023-11-12T21:31:50.158657</dc:date>
    <dc:format>image/svg+xml</dc:format>
    <dc:creator>
     <cc:Agent>
      <dc:title>Matplotlib v3.8.1, https://matplotlib.org/</dc:title>
     </cc:Agent>
    </dc:creator>
   </cc:Work>
  </rdf:RDF>
 </metadata>
 <defs>
  <style type="text/css">*{stroke-linejoin: round; stroke-linecap: butt}</style>
 </defs>
 <g id="figure_1">
  <g id="patch_1">
   <path d="M 0 590.077344 
L 592.925 590.077344 
L 592.925 0 
L 0 0 
z
" style="fill: #ffffff"/>
  </g>
  <g id="axes_1">
   <g id="patch_2">
    <path d="M 34.925 558.199219 
L 592.925 558.199219 
L 592.925 3.799219 
L 34.925 3.799219 
z
" style="fill: #ffffff"/>
   </g>
   <g id="PatchCollection_1">
    <path d="M 83.115909 530.38659 
L 88.188636 530.38659 
L 88.188636 528.858653 
L 83.115909 528.858653 
z
" clip-path="url(#pbd4daa117e)" style="fill: #0000ff; fill-opacity: 0.5"/>
    <path d="M 95.797727 521.872657 
L 100.870455 521.872657 
L 100.870455 519.238162 
L 95.797727 519.238162 
z
" clip-path="url(#pbd4daa117e)" style="fill: #0000ff; fill-opacity: 0.5"/>
    <path d="M 133.843182 468.318627 
L 138.915909 468.318627 
L 138.915909 464.238498 
L 133.843182 464.238498 
z
" clip-path="url(#pbd4daa117e)" style="fill: #0000ff; fill-opacity: 0.5"/>
    <path d="M 197.252273 400.330315 
L 202.325 400.330315 
L 202.325 392.372436 
L 197.252273 392.372436 
z
" clip-path="url(#pbd4daa117e)" style="fill: #0000ff; fill-opacity: 0.5"/>
    <path d="M 286.025 311.076483 
L 291.097727 311.076483 
L 291.097727 309.240671 
L 286.025 309.240671 
z
" clip-path="url(#pbd4daa117e)" style="fill: #0000ff; fill-opacity: 0.5"/>
    <path d="M 400.161364 194.328789 
L 405.234091 194.328789 
L 405.234091 191.676471 
L 400.161364 191.676471 
z
" clip-path="url(#pbd4daa117e)" style="fill: #0000ff; fill-opacity: 0.5"/>
    <path d="M 539.661364 62.388947 
L 544.734091 62.388947 
L 544.734091 53.409736 
L 539.661364 53.409736 
z
" clip-path="url(#pbd4daa117e)" style="fill: #0000ff; fill-opacity: 0.5"/>
   </g>
   <g id="matplotlib.axis_1">
    <g id="xtick_1">
     <g id="line2d_1">
      <path d="M 85.652273 558.199219 
L 85.652273 3.799219 
" clip-path="url(#pbd4daa117e)" style="fill: none; stroke: #b0b0b0; stroke-opacity: 0.6; stroke-width: 0.8; stroke-linecap: square"/>
     </g>
     <g id="line2d_2">
      <defs>
       <path id="mc99d518014" d="M 0 0 
L 0 3.5 
" style="stroke: #000000; stroke-width: 0.8"/>
      </defs>
      <g>
       <use xlink:href="#mc99d518014" x="85.652273" y="558.199219" style="stroke: #000000; stroke-width: 0.8"/>
      </g>
     </g>
     <g id="text_1">
      <!-- 0 -->
      <g transform="translate(82.471023 572.797656) scale(0.1 -0.1)">
       <defs>
        <path id="DejaVuSans-30" d="M 2034 4250 
Q 1547 4250 1301 3770 
Q 1056 3291 1056 2328 
Q 1056 1369 1301 889 
Q 1547 409 2034 409 
Q 2525 409 2770 889 
Q 3016 1369 3016 2328 
Q 3016 3291 2770 3770 
Q 2525 4250 2034 4250 
z
M 2034 4750 
Q 2819 4750 3233 4129 
Q 3647 3509 3647 2328 
Q 3647 1150 3233 529 
Q 2819 -91 2034 -91 
Q 1250 -91 836 529 
Q 422 1150 422 2328 
Q 422 3509 836 4129 
Q 1250 4750 2034 4750 
z
" transform="scale(0.015625)"/>
       </defs>
       <use xlink:href="#DejaVuSans-30"/>
      </g>
     </g>
    </g>
    <g id="xtick_2">
     <g id="line2d_3">
      <path d="M 187.106818 558.199219 
L 187.106818 3.799219 
" clip-path="url(#pbd4daa117e)" style="fill: none; stroke: #b0b0b0; stroke-opacity: 0.6; stroke-width: 0.8; stroke-linecap: square"/>
     </g>
     <g id="line2d_4">
      <g>
       <use xlink:href="#mc99d518014" x="187.106818" y="558.199219" style="stroke: #000000; stroke-width: 0.8"/>
      </g>
     </g>
     <g id="text_2">
      <!-- 200 -->
      <g transform="translate(177.563068 572.797656) scale(0.1 -0.1)">
       <defs>
        <path id="DejaVuSans-32" d="M 1228 531 
L 3431 531 
L 3431 0 
L 469 0 
L 469 531 
Q 828 903 1448 1529 
Q 2069 2156 2228 2338 
Q 2531 2678 2651 2914 
Q 2772 3150 2772 3378 
Q 2772 3750 2511 3984 
Q 2250 4219 1831 4219 
Q 1534 4219 1204 4116 
Q 875 4013 500 3803 
L 500 4441 
Q 881 4594 1212 4672 
Q 1544 4750 1819 4750 
Q 2544 4750 2975 4387 
Q 3406 4025 3406 3419 
Q 3406 3131 3298 2873 
Q 3191 2616 2906 2266 
Q 2828 2175 2409 1742 
Q 1991 1309 1228 531 
z
" transform="scale(0.015625)"/>
       </defs>
       <use xlink:href="#DejaVuSans-32"/>
       <use xlink:href="#DejaVuSans-30" x="63.623047"/>
       <use xlink:href="#DejaVuSans-30" x="127.246094"/>
      </g>
     </g>
    </g>
    <g id="xtick_3">
     <g id="line2d_5">
      <path d="M 288.561364 558.199219 
L 288.561364 3.799219 
" clip-path="url(#pbd4daa117e)" style="fill: none; stroke: #b0b0b0; stroke-opacity: 0.6; stroke-width: 0.8; stroke-linecap: square"/>
     </g>
     <g id="line2d_6">
      <g>
       <use xlink:href="#mc99d518014" x="288.561364" y="558.199219" style="stroke: #000000; stroke-width: 0.8"/>
      </g>
     </g>
     <g id="text_3">
      <!-- 400 -->
      <g transform="translate(279.017614 572.797656) scale(0.1 -0.1)">
       <defs>
        <path id="DejaVuSans-34" d="M 2419 4116 
L 825 1625 
L 2419 1625 
L 2419 4116 
z
M 2253 4666 
L 3047 4666 
L 3047 1625 
L 3713 1625 
L 3713 1100 
L 3047 1100 
L 3047 0 
L 2419 0 
L 2419 1100 
L 313 1100 
L 313 1709 
L 2253 4666 
z
" transform="scale(0.015625)"/>
       </defs>
       <use xlink:href="#DejaVuSans-34"/>
       <use xlink:href="#DejaVuSans-30" x="63.623047"/>
       <use xlink:href="#DejaVuSans-30" x="127.246094"/>
      </g>
     </g>
    </g>
    <g id="xtick_4">
     <g id="line2d_7">
      <path d="M 390.015909 558.199219 
L 390.015909 3.799219 
" clip-path="url(#pbd4daa117e)" style="fill: none; stroke: #b0b0b0; stroke-opacity: 0.6; stroke-width: 0.8; stroke-linecap: square"/>
     </g>
     <g id="line2d_8">
      <g>
       <use xlink:href="#mc99d518014" x="390.015909" y="558.199219" style="stroke: #000000; stroke-width: 0.8"/>
      </g>
     </g>
     <g id="text_4">
      <!-- 600 -->
      <g transform="translate(380.472159 572.797656) scale(0.1 -0.1)">
       <defs>
        <path id="DejaVuSans-36" d="M 2113 2584 
Q 1688 2584 1439 2293 
Q 1191 2003 1191 1497 
Q 1191 994 1439 701 
Q 1688 409 2113 409 
Q 2538 409 2786 701 
Q 3034 994 3034 1497 
Q 3034 2003 2786 2293 
Q 2538 2584 2113 2584 
z
M 3366 4563 
L 3366 3988 
Q 3128 4100 2886 4159 
Q 2644 4219 2406 4219 
Q 1781 4219 1451 3797 
Q 1122 3375 1075 2522 
Q 1259 2794 1537 2939 
Q 1816 3084 2150 3084 
Q 2853 3084 3261 2657 
Q 3669 2231 3669 1497 
Q 3669 778 3244 343 
Q 2819 -91 2113 -91 
Q 1303 -91 875 529 
Q 447 1150 447 2328 
Q 447 3434 972 4092 
Q 1497 4750 2381 4750 
Q 2619 4750 2861 4703 
Q 3103 4656 3366 4563 
z
" transform="scale(0.015625)"/>
       </defs>
       <use xlink:href="#DejaVuSans-36"/>
       <use xlink:href="#DejaVuSans-30" x="63.623047"/>
       <use xlink:href="#DejaVuSans-30" x="127.246094"/>
      </g>
     </g>
    </g>
    <g id="xtick_5">
     <g id="line2d_9">
      <path d="M 491.470455 558.199219 
L 491.470455 3.799219 
" clip-path="url(#pbd4daa117e)" style="fill: none; stroke: #b0b0b0; stroke-opacity: 0.6; stroke-width: 0.8; stroke-linecap: square"/>
     </g>
     <g id="line2d_10">
      <g>
       <use xlink:href="#mc99d518014" x="491.470455" y="558.199219" style="stroke: #000000; stroke-width: 0.8"/>
      </g>
     </g>
     <g id="text_5">
      <!-- 800 -->
      <g transform="translate(481.926705 572.797656) scale(0.1 -0.1)">
       <defs>
        <path id="DejaVuSans-38" d="M 2034 2216 
Q 1584 2216 1326 1975 
Q 1069 1734 1069 1313 
Q 1069 891 1326 650 
Q 1584 409 2034 409 
Q 2484 409 2743 651 
Q 3003 894 3003 1313 
Q 3003 1734 2745 1975 
Q 2488 2216 2034 2216 
z
M 1403 2484 
Q 997 2584 770 2862 
Q 544 3141 544 3541 
Q 544 4100 942 4425 
Q 1341 4750 2034 4750 
Q 2731 4750 3128 4425 
Q 3525 4100 3525 3541 
Q 3525 3141 3298 2862 
Q 3072 2584 2669 2484 
Q 3125 2378 3379 2068 
Q 3634 1759 3634 1313 
Q 3634 634 3220 271 
Q 2806 -91 2034 -91 
Q 1263 -91 848 271 
Q 434 634 434 1313 
Q 434 1759 690 2068 
Q 947 2378 1403 2484 
z
M 1172 3481 
Q 1172 3119 1398 2916 
Q 1625 2713 2034 2713 
Q 2441 2713 2670 2916 
Q 2900 3119 2900 3481 
Q 2900 3844 2670 4047 
Q 2441 4250 2034 4250 
Q 1625 4250 1398 4047 
Q 1172 3844 1172 3481 
z
" transform="scale(0.015625)"/>
       </defs>
       <use xlink:href="#DejaVuSans-38"/>
       <use xlink:href="#DejaVuSans-30" x="63.623047"/>
       <use xlink:href="#DejaVuSans-30" x="127.246094"/>
      </g>
     </g>
    </g>
    <g id="xtick_6">
     <g id="line2d_11">
      <path d="M 136.379545 558.199219 
L 136.379545 3.799219 
" clip-path="url(#pbd4daa117e)" style="fill: none; stroke: #b0b0b0; stroke-opacity: 0.2; stroke-width: 0.8; stroke-linecap: square"/>
     </g>
     <g id="line2d_12">
      <defs>
       <path id="mc3d1fbe52a" d="M 0 0 
L 0 2 
" style="stroke: #000000; stroke-width: 0.6"/>
      </defs>
      <g>
       <use xlink:href="#mc3d1fbe52a" x="136.379545" y="558.199219" style="stroke: #000000; stroke-width: 0.6"/>
      </g>
     </g>
    </g>
    <g id="xtick_7">
     <g id="line2d_13">
      <path d="M 237.834091 558.199219 
L 237.834091 3.799219 
" clip-path="url(#pbd4daa117e)" style="fill: none; stroke: #b0b0b0; stroke-opacity: 0.2; stroke-width: 0.8; stroke-linecap: square"/>
     </g>
     <g id="line2d_14">
      <g>
       <use xlink:href="#mc3d1fbe52a" x="237.834091" y="558.199219" style="stroke: #000000; stroke-width: 0.6"/>
      </g>
     </g>
    </g>
    <g id="xtick_8">
     <g id="line2d_15">
      <path d="M 339.288636 558.199219 
L 339.288636 3.799219 
" clip-path="url(#pbd4daa117e)" style="fill: none; stroke: #b0b0b0; stroke-opacity: 0.2; stroke-width: 0.8; stroke-linecap: square"/>
     </g>
     <g id="line2d_16">
      <g>
       <use xlink:href="#mc3d1fbe52a" x="339.288636" y="558.199219" style="stroke: #000000; stroke-width: 0.6"/>
      </g>
     </g>
    </g>
    <g id="xtick_9">
     <g id="line2d_17">
      <path d="M 440.743182 558.199219 
L 440.743182 3.799219 
" clip-path="url(#pbd4daa117e)" style="fill: none; stroke: #b0b0b0; stroke-opacity: 0.2; stroke-width: 0.8; stroke-linecap: square"/>
     </g>
     <g id="line2d_18">
      <g>
       <use xlink:href="#mc3d1fbe52a" x="440.743182" y="558.199219" style="stroke: #000000; stroke-width: 0.6"/>
      </g>
     </g>
    </g>
    <g id="xtick_10">
     <g id="line2d_19">
      <path d="M 542.197727 558.199219 
L 542.197727 3.799219 
" clip-path="url(#pbd4daa117e)" style="fill: none; stroke: #b0b0b0; stroke-opacity: 0.2; stroke-width: 0.8; stroke-linecap: square"/>
     </g>
     <g id="line2d_20">
      <g>
       <use xlink:href="#mc3d1fbe52a" x="542.197727" y="558.199219" style="stroke: #000000; stroke-width: 0.6"/>
      </g>
     </g>
    </g>
    <g id="text_6">
     <!-- Kwadrat odległości ciężarków od osi obrotu $R^2 [cm^2]$ -->
     <g transform="translate(183.525 587.977344) scale(0.1 -0.1)">
      <defs>
       <path id="DejaVuSans-4b" d="M 628 4666 
L 1259 4666 
L 1259 2694 
L 3353 4666 
L 4166 4666 
L 1850 2491 
L 4331 0 
L 3500 0 
L 1259 2247 
L 1259 0 
L 628 0 
L 628 4666 
z
" transform="scale(0.015625)"/>
       <path id="DejaVuSans-77" d="M 269 3500 
L 844 3500 
L 1563 769 
L 2278 3500 
L 2956 3500 
L 3675 769 
L 4391 3500 
L 4966 3500 
L 4050 0 
L 3372 0 
L 2619 2869 
L 1863 0 
L 1184 0 
L 269 3500 
z
" transform="scale(0.015625)"/>
       <path id="DejaVuSans-61" d="M 2194 1759 
Q 1497 1759 1228 1600 
Q 959 1441 959 1056 
Q 959 750 1161 570 
Q 1363 391 1709 391 
Q 2188 391 2477 730 
Q 2766 1069 2766 1631 
L 2766 1759 
L 2194 1759 
z
M 3341 1997 
L 3341 0 
L 2766 0 
L 2766 531 
Q 2569 213 2275 61 
Q 1981 -91 1556 -91 
Q 1019 -91 701 211 
Q 384 513 384 1019 
Q 384 1609 779 1909 
Q 1175 2209 1959 2209 
L 2766 2209 
L 2766 2266 
Q 2766 2663 2505 2880 
Q 2244 3097 1772 3097 
Q 1472 3097 1187 3025 
Q 903 2953 641 2809 
L 641 3341 
Q 956 3463 1253 3523 
Q 1550 3584 1831 3584 
Q 2591 3584 2966 3190 
Q 3341 2797 3341 1997 
z
" transform="scale(0.015625)"/>
       <path id="DejaVuSans-64" d="M 2906 2969 
L 2906 4863 
L 3481 4863 
L 3481 0 
L 2906 0 
L 2906 525 
Q 2725 213 2448 61 
Q 2172 -91 1784 -91 
Q 1150 -91 751 415 
Q 353 922 353 1747 
Q 353 2572 751 3078 
Q 1150 3584 1784 3584 
Q 2172 3584 2448 3432 
Q 2725 3281 2906 2969 
z
M 947 1747 
Q 947 1113 1208 752 
Q 1469 391 1925 391 
Q 2381 391 2643 752 
Q 2906 1113 2906 1747 
Q 2906 2381 2643 2742 
Q 2381 3103 1925 3103 
Q 1469 3103 1208 2742 
Q 947 2381 947 1747 
z
" transform="scale(0.015625)"/>
       <path id="DejaVuSans-72" d="M 2631 2963 
Q 2534 3019 2420 3045 
Q 2306 3072 2169 3072 
Q 1681 3072 1420 2755 
Q 1159 2438 1159 1844 
L 1159 0 
L 581 0 
L 581 3500 
L 1159 3500 
L 1159 2956 
Q 1341 3275 1631 3429 
Q 1922 3584 2338 3584 
Q 2397 3584 2469 3576 
Q 2541 3569 2628 3553 
L 2631 2963 
z
" transform="scale(0.015625)"/>
       <path id="DejaVuSans-74" d="M 1172 4494 
L 1172 3500 
L 2356 3500 
L 2356 3053 
L 1172 3053 
L 1172 1153 
Q 1172 725 1289 603 
Q 1406 481 1766 481 
L 2356 481 
L 2356 0 
L 1766 0 
Q 1100 0 847 248 
Q 594 497 594 1153 
L 594 3053 
L 172 3053 
L 172 3500 
L 594 3500 
L 594 4494 
L 1172 4494 
z
" transform="scale(0.015625)"/>
       <path id="DejaVuSans-20" transform="scale(0.015625)"/>
       <path id="DejaVuSans-6f" d="M 1959 3097 
Q 1497 3097 1228 2736 
Q 959 2375 959 1747 
Q 959 1119 1226 758 
Q 1494 397 1959 397 
Q 2419 397 2687 759 
Q 2956 1122 2956 1747 
Q 2956 2369 2687 2733 
Q 2419 3097 1959 3097 
z
M 1959 3584 
Q 2709 3584 3137 3096 
Q 3566 2609 3566 1747 
Q 3566 888 3137 398 
Q 2709 -91 1959 -91 
Q 1206 -91 779 398 
Q 353 888 353 1747 
Q 353 2609 779 3096 
Q 1206 3584 1959 3584 
z
" transform="scale(0.015625)"/>
       <path id="DejaVuSans-6c" d="M 603 4863 
L 1178 4863 
L 1178 0 
L 603 0 
L 603 4863 
z
" transform="scale(0.015625)"/>
       <path id="DejaVuSans-65" d="M 3597 1894 
L 3597 1613 
L 953 1613 
Q 991 1019 1311 708 
Q 1631 397 2203 397 
Q 2534 397 2845 478 
Q 3156 559 3463 722 
L 3463 178 
Q 3153 47 2828 -22 
Q 2503 -91 2169 -91 
Q 1331 -91 842 396 
Q 353 884 353 1716 
Q 353 2575 817 3079 
Q 1281 3584 2069 3584 
Q 2775 3584 3186 3129 
Q 3597 2675 3597 1894 
z
M 3022 2063 
Q 3016 2534 2758 2815 
Q 2500 3097 2075 3097 
Q 1594 3097 1305 2825 
Q 1016 2553 972 2059 
L 3022 2063 
z
" transform="scale(0.015625)"/>
       <path id="DejaVuSans-67" d="M 2906 1791 
Q 2906 2416 2648 2759 
Q 2391 3103 1925 3103 
Q 1463 3103 1205 2759 
Q 947 2416 947 1791 
Q 947 1169 1205 825 
Q 1463 481 1925 481 
Q 2391 481 2648 825 
Q 2906 1169 2906 1791 
z
M 3481 434 
Q 3481 -459 3084 -895 
Q 2688 -1331 1869 -1331 
Q 1566 -1331 1297 -1286 
Q 1028 -1241 775 -1147 
L 775 -588 
Q 1028 -725 1275 -790 
Q 1522 -856 1778 -856 
Q 2344 -856 2625 -561 
Q 2906 -266 2906 331 
L 2906 616 
Q 2728 306 2450 153 
Q 2172 0 1784 0 
Q 1141 0 747 490 
Q 353 981 353 1791 
Q 353 2603 747 3093 
Q 1141 3584 1784 3584 
Q 2172 3584 2450 3431 
Q 2728 3278 2906 2969 
L 2906 3500 
L 3481 3500 
L 3481 434 
z
" transform="scale(0.015625)"/>
       <path id="DejaVuSans-142" d="M 622 4863 
L 1197 4863 
L 1197 2981 
L 1588 3263 
L 1825 2931 
L 1197 2491 
L 1197 0 
L 622 0 
L 622 2081 
L 238 1806 
L 6 2138 
L 622 2578 
L 622 4863 
z
" transform="scale(0.015625)"/>
       <path id="DejaVuSans-15b" d="M 2241 5141 
L 2863 5141 
L 1844 3966 
L 1366 3966 
L 2241 5141 
z
M 2834 3397 
L 2834 2853 
Q 2591 2978 2328 3040 
Q 2066 3103 1784 3103 
Q 1356 3103 1142 2972 
Q 928 2841 928 2578 
Q 928 2378 1081 2264 
Q 1234 2150 1697 2047 
L 1894 2003 
Q 2506 1872 2764 1633 
Q 3022 1394 3022 966 
Q 3022 478 2636 193 
Q 2250 -91 1575 -91 
Q 1294 -91 989 -36 
Q 684 19 347 128 
L 347 722 
Q 666 556 975 473 
Q 1284 391 1588 391 
Q 1994 391 2212 530 
Q 2431 669 2431 922 
Q 2431 1156 2273 1281 
Q 2116 1406 1581 1522 
L 1381 1569 
Q 847 1681 609 1914 
Q 372 2147 372 2553 
Q 372 3047 722 3315 
Q 1072 3584 1716 3584 
Q 2034 3584 2315 3537 
Q 2597 3491 2834 3397 
z
" transform="scale(0.015625)"/>
       <path id="DejaVuSans-63" d="M 3122 3366 
L 3122 2828 
Q 2878 2963 2633 3030 
Q 2388 3097 2138 3097 
Q 1578 3097 1268 2742 
Q 959 2388 959 1747 
Q 959 1106 1268 751 
Q 1578 397 2138 397 
Q 2388 397 2633 464 
Q 2878 531 3122 666 
L 3122 134 
Q 2881 22 2623 -34 
Q 2366 -91 2075 -91 
Q 1284 -91 818 406 
Q 353 903 353 1747 
Q 353 2603 823 3093 
Q 1294 3584 2113 3584 
Q 2378 3584 2631 3529 
Q 2884 3475 3122 3366 
z
" transform="scale(0.015625)"/>
       <path id="DejaVuSans-69" d="M 603 3500 
L 1178 3500 
L 1178 0 
L 603 0 
L 603 3500 
z
M 603 4863 
L 1178 4863 
L 1178 4134 
L 603 4134 
L 603 4863 
z
" transform="scale(0.015625)"/>
       <path id="DejaVuSans-a0" transform="scale(0.015625)"/>
       <path id="DejaVuSans-119" d="M 3597 1894 
L 3597 1613 
L 953 1613 
Q 991 1019 1311 708 
Q 1631 397 2203 397 
Q 2534 397 2845 478 
Q 3156 559 3463 722 
L 3463 178 
Q 3153 47 2828 -22 
Q 2503 -91 2169 -91 
Q 1331 -91 842 396 
Q 353 884 353 1716 
Q 353 2575 817 3079 
Q 1281 3584 2069 3584 
Q 2775 3584 3186 3129 
Q 3597 2675 3597 1894 
z
M 3022 2063 
Q 3016 2534 2758 2815 
Q 2500 3097 2075 3097 
Q 1594 3097 1305 2825 
Q 1016 2553 972 2059 
L 3022 2063 
z
M 2550 0 
L 2922 0 
Q 2781 -191 2714 -328 
Q 2647 -466 2647 -563 
Q 2647 -706 2733 -778 
Q 2819 -850 2988 -850 
Q 3088 -850 3184 -826 
Q 3281 -803 3378 -756 
L 3378 -1172 
Q 3259 -1203 3153 -1218 
Q 3047 -1234 2953 -1234 
Q 2572 -1234 2392 -1098 
Q 2213 -963 2213 -672 
Q 2213 -522 2295 -358 
Q 2378 -194 2550 0 
z
" transform="scale(0.015625)"/>
       <path id="DejaVuSans-17c" d="M 1378 4863 
L 1953 4863 
L 1953 4134 
L 1378 4134 
L 1378 4863 
z
M 1672 3584 
L 1672 3584 
z
M 353 3500 
L 3084 3500 
L 3084 2975 
L 922 459 
L 3084 459 
L 3084 0 
L 275 0 
L 275 525 
L 2438 3041 
L 353 3041 
L 353 3500 
z
" transform="scale(0.015625)"/>
       <path id="DejaVuSans-6b" d="M 581 4863 
L 1159 4863 
L 1159 1991 
L 2875 3500 
L 3609 3500 
L 1753 1863 
L 3688 0 
L 2938 0 
L 1159 1709 
L 1159 0 
L 581 0 
L 581 4863 
z
" transform="scale(0.015625)"/>
       <path id="DejaVuSans-f3" d="M 1959 3097 
Q 1497 3097 1228 2736 
Q 959 2375 959 1747 
Q 959 1119 1226 758 
Q 1494 397 1959 397 
Q 2419 397 2687 759 
Q 2956 1122 2956 1747 
Q 2956 2369 2687 2733 
Q 2419 3097 1959 3097 
z
M 1959 3584 
Q 2709 3584 3137 3096 
Q 3566 2609 3566 1747 
Q 3566 888 3137 398 
Q 2709 -91 1959 -91 
Q 1206 -91 779 398 
Q 353 888 353 1747 
Q 353 2609 779 3096 
Q 1206 3584 1959 3584 
z
M 2394 5119 
L 3016 5119 
L 1997 3944 
L 1519 3944 
L 2394 5119 
z
" transform="scale(0.015625)"/>
       <path id="DejaVuSans-73" d="M 2834 3397 
L 2834 2853 
Q 2591 2978 2328 3040 
Q 2066 3103 1784 3103 
Q 1356 3103 1142 2972 
Q 928 2841 928 2578 
Q 928 2378 1081 2264 
Q 1234 2150 1697 2047 
L 1894 2003 
Q 2506 1872 2764 1633 
Q 3022 1394 3022 966 
Q 3022 478 2636 193 
Q 2250 -91 1575 -91 
Q 1294 -91 989 -36 
Q 684 19 347 128 
L 347 722 
Q 666 556 975 473 
Q 1284 391 1588 391 
Q 1994 391 2212 530 
Q 2431 669 2431 922 
Q 2431 1156 2273 1281 
Q 2116 1406 1581 1522 
L 1381 1569 
Q 847 1681 609 1914 
Q 372 2147 372 2553 
Q 372 3047 722 3315 
Q 1072 3584 1716 3584 
Q 2034 3584 2315 3537 
Q 2597 3491 2834 3397 
z
" transform="scale(0.015625)"/>
       <path id="DejaVuSans-62" d="M 3116 1747 
Q 3116 2381 2855 2742 
Q 2594 3103 2138 3103 
Q 1681 3103 1420 2742 
Q 1159 2381 1159 1747 
Q 1159 1113 1420 752 
Q 1681 391 2138 391 
Q 2594 391 2855 752 
Q 3116 1113 3116 1747 
z
M 1159 2969 
Q 1341 3281 1617 3432 
Q 1894 3584 2278 3584 
Q 2916 3584 3314 3078 
Q 3713 2572 3713 1747 
Q 3713 922 3314 415 
Q 2916 -91 2278 -91 
Q 1894 -91 1617 61 
Q 1341 213 1159 525 
L 1159 0 
L 581 0 
L 581 4863 
L 1159 4863 
L 1159 2969 
z
" transform="scale(0.015625)"/>
       <path id="DejaVuSans-75" d="M 544 1381 
L 544 3500 
L 1119 3500 
L 1119 1403 
Q 1119 906 1312 657 
Q 1506 409 1894 409 
Q 2359 409 2629 706 
Q 2900 1003 2900 1516 
L 2900 3500 
L 3475 3500 
L 3475 0 
L 2900 0 
L 2900 538 
Q 2691 219 2414 64 
Q 2138 -91 1772 -91 
Q 1169 -91 856 284 
Q 544 659 544 1381 
z
M 1991 3584 
L 1991 3584 
z
" transform="scale(0.015625)"/>
       <path id="DejaVuSans-Oblique-52" d="M 1613 4147 
L 1294 2491 
L 2106 2491 
Q 2584 2491 2879 2755 
Q 3175 3019 3175 3444 
Q 3175 3784 2976 3965 
Q 2778 4147 2406 4147 
L 1613 4147 
z
M 2772 2241 
Q 2972 2194 3105 2009 
Q 3238 1825 3413 1275 
L 3809 0 
L 3144 0 
L 2778 1197 
Q 2638 1659 2453 1815 
Q 2269 1972 1888 1972 
L 1191 1972 
L 806 0 
L 172 0 
L 1081 4666 
L 2503 4666 
Q 3150 4666 3495 4373 
Q 3841 4081 3841 3531 
Q 3841 3044 3547 2687 
Q 3253 2331 2772 2241 
z
" transform="scale(0.015625)"/>
       <path id="DejaVuSans-5b" d="M 550 4863 
L 1875 4863 
L 1875 4416 
L 1125 4416 
L 1125 -397 
L 1875 -397 
L 1875 -844 
L 550 -844 
L 550 4863 
z
" transform="scale(0.015625)"/>
       <path id="DejaVuSans-Oblique-63" d="M 3431 3366 
L 3316 2797 
Q 3109 2947 2876 3022 
Q 2644 3097 2394 3097 
Q 2119 3097 1870 3000 
Q 1622 2903 1453 2725 
Q 1184 2453 1037 2087 
Q 891 1722 891 1331 
Q 891 859 1127 628 
Q 1363 397 1844 397 
Q 2081 397 2348 469 
Q 2616 541 2906 684 
L 2797 116 
Q 2547 13 2283 -39 
Q 2019 -91 1741 -91 
Q 1044 -91 669 257 
Q 294 606 294 1253 
Q 294 1797 489 2255 
Q 684 2713 1069 3078 
Q 1331 3328 1684 3456 
Q 2038 3584 2456 3584 
Q 2700 3584 2940 3529 
Q 3181 3475 3431 3366 
z
" transform="scale(0.015625)"/>
       <path id="DejaVuSans-Oblique-6d" d="M 5747 2113 
L 5338 0 
L 4763 0 
L 5166 2094 
Q 5191 2228 5203 2325 
Q 5216 2422 5216 2491 
Q 5216 2772 5059 2928 
Q 4903 3084 4622 3084 
Q 4203 3084 3875 2770 
Q 3547 2456 3450 1953 
L 3066 0 
L 2491 0 
L 2900 2094 
Q 2925 2209 2937 2307 
Q 2950 2406 2950 2484 
Q 2950 2769 2794 2926 
Q 2638 3084 2363 3084 
Q 1938 3084 1609 2770 
Q 1281 2456 1184 1953 
L 800 0 
L 225 0 
L 909 3500 
L 1484 3500 
L 1375 2956 
Q 1609 3263 1923 3423 
Q 2238 3584 2597 3584 
Q 2978 3584 3223 3384 
Q 3469 3184 3519 2828 
Q 3781 3197 4126 3390 
Q 4472 3584 4856 3584 
Q 5306 3584 5551 3325 
Q 5797 3066 5797 2591 
Q 5797 2488 5784 2364 
Q 5772 2241 5747 2113 
z
" transform="scale(0.015625)"/>
       <path id="DejaVuSans-5d" d="M 1947 4863 
L 1947 -844 
L 622 -844 
L 622 -397 
L 1369 -397 
L 1369 4416 
L 622 4416 
L 622 4863 
L 1947 4863 
z
" transform="scale(0.015625)"/>
      </defs>
      <use xlink:href="#DejaVuSans-4b" transform="translate(0 0.765625)"/>
      <use xlink:href="#DejaVuSans-77" transform="translate(65.576172 0.765625)"/>
      <use xlink:href="#DejaVuSans-61" transform="translate(147.363281 0.765625)"/>
      <use xlink:href="#DejaVuSans-64" transform="translate(208.642578 0.765625)"/>
      <use xlink:href="#DejaVuSans-72" transform="translate(272.119141 0.765625)"/>
      <use xlink:href="#DejaVuSans-61" transform="translate(313.232422 0.765625)"/>
      <use xlink:href="#DejaVuSans-74" transform="translate(374.511719 0.765625)"/>
      <use xlink:href="#DejaVuSans-20" transform="translate(413.720703 0.765625)"/>
      <use xlink:href="#DejaVuSans-6f" transform="translate(445.507812 0.765625)"/>
      <use xlink:href="#DejaVuSans-64" transform="translate(506.689453 0.765625)"/>
      <use xlink:href="#DejaVuSans-6c" transform="translate(570.166016 0.765625)"/>
      <use xlink:href="#DejaVuSans-65" transform="translate(597.949219 0.765625)"/>
      <use xlink:href="#DejaVuSans-67" transform="translate(659.472656 0.765625)"/>
      <use xlink:href="#DejaVuSans-142" transform="translate(722.949219 0.765625)"/>
      <use xlink:href="#DejaVuSans-6f" transform="translate(751.367188 0.765625)"/>
      <use xlink:href="#DejaVuSans-15b" transform="translate(812.548828 0.765625)"/>
      <use xlink:href="#DejaVuSans-63" transform="translate(864.648438 0.765625)"/>
      <use xlink:href="#DejaVuSans-69" transform="translate(919.628906 0.765625)"/>
      <use xlink:href="#DejaVuSans-a0" transform="translate(947.412109 0.765625)"/>
      <use xlink:href="#DejaVuSans-63" transform="translate(979.199219 0.765625)"/>
      <use xlink:href="#DejaVuSans-69" transform="translate(1034.179688 0.765625)"/>
      <use xlink:href="#DejaVuSans-119" transform="translate(1061.962891 0.765625)"/>
      <use xlink:href="#DejaVuSans-17c" transform="translate(1123.486328 0.765625)"/>
      <use xlink:href="#DejaVuSans-61" transform="translate(1175.976562 0.765625)"/>
      <use xlink:href="#DejaVuSans-72" transform="translate(1237.255859 0.765625)"/>
      <use xlink:href="#DejaVuSans-6b" transform="translate(1278.369141 0.765625)"/>
      <use xlink:href="#DejaVuSans-f3" transform="translate(1336.279297 0.765625)"/>
      <use xlink:href="#DejaVuSans-77" transform="translate(1397.460938 0.765625)"/>
      <use xlink:href="#DejaVuSans-20" transform="translate(1479.248047 0.765625)"/>
      <use xlink:href="#DejaVuSans-6f" transform="translate(1511.035156 0.765625)"/>
      <use xlink:href="#DejaVuSans-64" transform="translate(1572.216797 0.765625)"/>
      <use xlink:href="#DejaVuSans-20" transform="translate(1635.693359 0.765625)"/>
      <use xlink:href="#DejaVuSans-6f" transform="translate(1667.480469 0.765625)"/>
      <use xlink:href="#DejaVuSans-73" transform="translate(1728.662109 0.765625)"/>
      <use xlink:href="#DejaVuSans-69" transform="translate(1780.761719 0.765625)"/>
      <use xlink:href="#DejaVuSans-20" transform="translate(1808.544922 0.765625)"/>
      <use xlink:href="#DejaVuSans-6f" transform="translate(1840.332031 0.765625)"/>
      <use xlink:href="#DejaVuSans-62" transform="translate(1901.513672 0.765625)"/>
      <use xlink:href="#DejaVuSans-72" transform="translate(1964.990234 0.765625)"/>
      <use xlink:href="#DejaVuSans-6f" transform="translate(2006.103516 0.765625)"/>
      <use xlink:href="#DejaVuSans-74" transform="translate(2067.285156 0.765625)"/>
      <use xlink:href="#DejaVuSans-75" transform="translate(2106.494141 0.765625)"/>
      <use xlink:href="#DejaVuSans-20" transform="translate(2169.873047 0.765625)"/>
      <use xlink:href="#DejaVuSans-Oblique-52" transform="translate(2201.660156 0.765625)"/>
      <use xlink:href="#DejaVuSans-32" transform="translate(2278.159349 39.046875) scale(0.7)"/>
      <use xlink:href="#DejaVuSans-5b" transform="translate(2325.429857 0.765625)"/>
      <use xlink:href="#DejaVuSans-Oblique-63" transform="translate(2364.443529 0.765625)"/>
      <use xlink:href="#DejaVuSans-Oblique-6d" transform="translate(2419.423997 0.765625)"/>
      <use xlink:href="#DejaVuSans-32" transform="translate(2521.486003 39.046875) scale(0.7)"/>
      <use xlink:href="#DejaVuSans-5d" transform="translate(2568.75651 0.765625)"/>
     </g>
    </g>
   </g>
   <g id="matplotlib.axis_2">
    <g id="ytick_1">
     <g id="line2d_21">
      <path d="M 34.925 523.549219 
L 592.925 523.549219 
" clip-path="url(#pbd4daa117e)" style="fill: none; stroke: #b0b0b0; stroke-opacity: 0.6; stroke-width: 0.8; stroke-linecap: square"/>
     </g>
     <g id="line2d_22">
      <defs>
       <path id="m885e2ff555" d="M 0 0 
L -3.5 0 
" style="stroke: #000000; stroke-width: 0.8"/>
      </defs>
      <g>
       <use xlink:href="#m885e2ff555" x="34.925" y="523.549219" style="stroke: #000000; stroke-width: 0.8"/>
      </g>
     </g>
     <g id="text_7">
      <!-- 5 -->
      <g transform="translate(21.5625 527.348438) scale(0.1 -0.1)">
       <defs>
        <path id="DejaVuSans-35" d="M 691 4666 
L 3169 4666 
L 3169 4134 
L 1269 4134 
L 1269 2991 
Q 1406 3038 1543 3061 
Q 1681 3084 1819 3084 
Q 2600 3084 3056 2656 
Q 3513 2228 3513 1497 
Q 3513 744 3044 326 
Q 2575 -91 1722 -91 
Q 1428 -91 1123 -41 
Q 819 9 494 109 
L 494 744 
Q 775 591 1075 516 
Q 1375 441 1709 441 
Q 2250 441 2565 725 
Q 2881 1009 2881 1497 
Q 2881 1984 2565 2268 
Q 2250 2553 1709 2553 
Q 1456 2553 1204 2497 
Q 953 2441 691 2322 
L 691 4666 
z
" transform="scale(0.015625)"/>
       </defs>
       <use xlink:href="#DejaVuSans-35"/>
      </g>
     </g>
    </g>
    <g id="ytick_2">
     <g id="line2d_23">
      <path d="M 34.925 350.299219 
L 592.925 350.299219 
" clip-path="url(#pbd4daa117e)" style="fill: none; stroke: #b0b0b0; stroke-opacity: 0.6; stroke-width: 0.8; stroke-linecap: square"/>
     </g>
     <g id="line2d_24">
      <g>
       <use xlink:href="#m885e2ff555" x="34.925" y="350.299219" style="stroke: #000000; stroke-width: 0.8"/>
      </g>
     </g>
     <g id="text_8">
      <!-- 30 -->
      <g transform="translate(15.2 354.098438) scale(0.1 -0.1)">
       <defs>
        <path id="DejaVuSans-33" d="M 2597 2516 
Q 3050 2419 3304 2112 
Q 3559 1806 3559 1356 
Q 3559 666 3084 287 
Q 2609 -91 1734 -91 
Q 1441 -91 1130 -33 
Q 819 25 488 141 
L 488 750 
Q 750 597 1062 519 
Q 1375 441 1716 441 
Q 2309 441 2620 675 
Q 2931 909 2931 1356 
Q 2931 1769 2642 2001 
Q 2353 2234 1838 2234 
L 1294 2234 
L 1294 2753 
L 1863 2753 
Q 2328 2753 2575 2939 
Q 2822 3125 2822 3475 
Q 2822 3834 2567 4026 
Q 2313 4219 1838 4219 
Q 1578 4219 1281 4162 
Q 984 4106 628 3988 
L 628 4550 
Q 988 4650 1302 4700 
Q 1616 4750 1894 4750 
Q 2613 4750 3031 4423 
Q 3450 4097 3450 3541 
Q 3450 3153 3228 2886 
Q 3006 2619 2597 2516 
z
" transform="scale(0.015625)"/>
       </defs>
       <use xlink:href="#DejaVuSans-33"/>
       <use xlink:href="#DejaVuSans-30" x="63.623047"/>
      </g>
     </g>
    </g>
    <g id="ytick_3">
     <g id="line2d_25">
      <path d="M 34.925 177.049219 
L 592.925 177.049219 
" clip-path="url(#pbd4daa117e)" style="fill: none; stroke: #b0b0b0; stroke-opacity: 0.6; stroke-width: 0.8; stroke-linecap: square"/>
     </g>
     <g id="line2d_26">
      <g>
       <use xlink:href="#m885e2ff555" x="34.925" y="177.049219" style="stroke: #000000; stroke-width: 0.8"/>
      </g>
     </g>
     <g id="text_9">
      <!-- 55 -->
      <g transform="translate(15.2 180.848438) scale(0.1 -0.1)">
       <use xlink:href="#DejaVuSans-35"/>
       <use xlink:href="#DejaVuSans-35" x="63.623047"/>
      </g>
     </g>
    </g>
    <g id="ytick_4">
     <g id="line2d_27">
      <path d="M 34.925 3.799219 
L 592.925 3.799219 
" clip-path="url(#pbd4daa117e)" style="fill: none; stroke: #b0b0b0; stroke-opacity: 0.6; stroke-width: 0.8; stroke-linecap: square"/>
     </g>
     <g id="line2d_28">
      <g>
       <use xlink:href="#m885e2ff555" x="34.925" y="3.799219" style="stroke: #000000; stroke-width: 0.8"/>
      </g>
     </g>
     <g id="text_10">
      <!-- 80 -->
      <g transform="translate(15.2 7.598438) scale(0.1 -0.1)">
       <use xlink:href="#DejaVuSans-38"/>
       <use xlink:href="#DejaVuSans-30" x="63.623047"/>
      </g>
     </g>
    </g>
    <g id="ytick_5">
     <g id="line2d_29">
      <path d="M 34.925 488.899219 
L 592.925 488.899219 
" clip-path="url(#pbd4daa117e)" style="fill: none; stroke: #b0b0b0; stroke-opacity: 0.2; stroke-width: 0.8; stroke-linecap: square"/>
     </g>
     <g id="line2d_30">
      <defs>
       <path id="mf83fe6cd49" d="M 0 0 
L -2 0 
" style="stroke: #000000; stroke-width: 0.6"/>
      </defs>
      <g>
       <use xlink:href="#mf83fe6cd49" x="34.925" y="488.899219" style="stroke: #000000; stroke-width: 0.6"/>
      </g>
     </g>
    </g>
    <g id="ytick_6">
     <g id="line2d_31">
      <path d="M 34.925 454.249219 
L 592.925 454.249219 
" clip-path="url(#pbd4daa117e)" style="fill: none; stroke: #b0b0b0; stroke-opacity: 0.2; stroke-width: 0.8; stroke-linecap: square"/>
     </g>
     <g id="line2d_32">
      <g>
       <use xlink:href="#mf83fe6cd49" x="34.925" y="454.249219" style="stroke: #000000; stroke-width: 0.6"/>
      </g>
     </g>
    </g>
    <g id="ytick_7">
     <g id="line2d_33">
      <path d="M 34.925 419.599219 
L 592.925 419.599219 
" clip-path="url(#pbd4daa117e)" style="fill: none; stroke: #b0b0b0; stroke-opacity: 0.2; stroke-width: 0.8; stroke-linecap: square"/>
     </g>
     <g id="line2d_34">
      <g>
       <use xlink:href="#mf83fe6cd49" x="34.925" y="419.599219" style="stroke: #000000; stroke-width: 0.6"/>
      </g>
     </g>
    </g>
    <g id="ytick_8">
     <g id="line2d_35">
      <path d="M 34.925 384.949219 
L 592.925 384.949219 
" clip-path="url(#pbd4daa117e)" style="fill: none; stroke: #b0b0b0; stroke-opacity: 0.2; stroke-width: 0.8; stroke-linecap: square"/>
     </g>
     <g id="line2d_36">
      <g>
       <use xlink:href="#mf83fe6cd49" x="34.925" y="384.949219" style="stroke: #000000; stroke-width: 0.6"/>
      </g>
     </g>
    </g>
    <g id="ytick_9">
     <g id="line2d_37">
      <path d="M 34.925 315.649219 
L 592.925 315.649219 
" clip-path="url(#pbd4daa117e)" style="fill: none; stroke: #b0b0b0; stroke-opacity: 0.2; stroke-width: 0.8; stroke-linecap: square"/>
     </g>
     <g id="line2d_38">
      <g>
       <use xlink:href="#mf83fe6cd49" x="34.925" y="315.649219" style="stroke: #000000; stroke-width: 0.6"/>
      </g>
     </g>
    </g>
    <g id="ytick_10">
     <g id="line2d_39">
      <path d="M 34.925 280.999219 
L 592.925 280.999219 
" clip-path="url(#pbd4daa117e)" style="fill: none; stroke: #b0b0b0; stroke-opacity: 0.2; stroke-width: 0.8; stroke-linecap: square"/>
     </g>
     <g id="line2d_40">
      <g>
       <use xlink:href="#mf83fe6cd49" x="34.925" y="280.999219" style="stroke: #000000; stroke-width: 0.6"/>
      </g>
     </g>
    </g>
    <g id="ytick_11">
     <g id="line2d_41">
      <path d="M 34.925 246.349219 
L 592.925 246.349219 
" clip-path="url(#pbd4daa117e)" style="fill: none; stroke: #b0b0b0; stroke-opacity: 0.2; stroke-width: 0.8; stroke-linecap: square"/>
     </g>
     <g id="line2d_42">
      <g>
       <use xlink:href="#mf83fe6cd49" x="34.925" y="246.349219" style="stroke: #000000; stroke-width: 0.6"/>
      </g>
     </g>
    </g>
    <g id="ytick_12">
     <g id="line2d_43">
      <path d="M 34.925 211.699219 
L 592.925 211.699219 
" clip-path="url(#pbd4daa117e)" style="fill: none; stroke: #b0b0b0; stroke-opacity: 0.2; stroke-width: 0.8; stroke-linecap: square"/>
     </g>
     <g id="line2d_44">
      <g>
       <use xlink:href="#mf83fe6cd49" x="34.925" y="211.699219" style="stroke: #000000; stroke-width: 0.6"/>
      </g>
     </g>
    </g>
    <g id="ytick_13">
     <g id="line2d_45">
      <path d="M 34.925 142.399219 
L 592.925 142.399219 
" clip-path="url(#pbd4daa117e)" style="fill: none; stroke: #b0b0b0; stroke-opacity: 0.2; stroke-width: 0.8; stroke-linecap: square"/>
     </g>
     <g id="line2d_46">
      <g>
       <use xlink:href="#mf83fe6cd49" x="34.925" y="142.399219" style="stroke: #000000; stroke-width: 0.6"/>
      </g>
     </g>
    </g>
    <g id="ytick_14">
     <g id="line2d_47">
      <path d="M 34.925 107.749219 
L 592.925 107.749219 
" clip-path="url(#pbd4daa117e)" style="fill: none; stroke: #b0b0b0; stroke-opacity: 0.2; stroke-width: 0.8; stroke-linecap: square"/>
     </g>
     <g id="line2d_48">
      <g>
       <use xlink:href="#mf83fe6cd49" x="34.925" y="107.749219" style="stroke: #000000; stroke-width: 0.6"/>
      </g>
     </g>
    </g>
    <g id="ytick_15">
     <g id="line2d_49">
      <path d="M 34.925 73.099219 
L 592.925 73.099219 
" clip-path="url(#pbd4daa117e)" style="fill: none; stroke: #b0b0b0; stroke-opacity: 0.2; stroke-width: 0.8; stroke-linecap: square"/>
     </g>
     <g id="line2d_50">
      <g>
       <use xlink:href="#mf83fe6cd49" x="34.925" y="73.099219" style="stroke: #000000; stroke-width: 0.6"/>
      </g>
     </g>
    </g>
    <g id="ytick_16">
     <g id="line2d_51">
      <path d="M 34.925 38.449219 
L 592.925 38.449219 
" clip-path="url(#pbd4daa117e)" style="fill: none; stroke: #b0b0b0; stroke-opacity: 0.2; stroke-width: 0.8; stroke-linecap: square"/>
     </g>
     <g id="line2d_52">
      <g>
       <use xlink:href="#mf83fe6cd49" x="34.925" y="38.449219" style="stroke: #000000; stroke-width: 0.6"/>
      </g>
     </g>
    </g>
    <g id="text_11">
     <!-- Długość kwadratu okresu drgań pręta $T^2 [s^2]$ -->
     <g transform="translate(9.1 392.149219) rotate(-90) scale(0.1 -0.1)">
      <defs>
       <path id="DejaVuSans-44" d="M 1259 4147 
L 1259 519 
L 2022 519 
Q 2988 519 3436 956 
Q 3884 1394 3884 2338 
Q 3884 3275 3436 3711 
Q 2988 4147 2022 4147 
L 1259 4147 
z
M 628 4666 
L 1925 4666 
Q 3281 4666 3915 4102 
Q 4550 3538 4550 2338 
Q 4550 1131 3912 565 
Q 3275 0 1925 0 
L 628 0 
L 628 4666 
z
" transform="scale(0.015625)"/>
       <path id="DejaVuSans-107" d="M 3122 3366 
L 3122 2828 
Q 2878 2963 2633 3030 
Q 2388 3097 2138 3097 
Q 1578 3097 1268 2742 
Q 959 2388 959 1747 
Q 959 1106 1268 751 
Q 1578 397 2138 397 
Q 2388 397 2633 464 
Q 2878 531 3122 666 
L 3122 134 
Q 2881 22 2623 -34 
Q 2366 -91 2075 -91 
Q 1284 -91 818 406 
Q 353 903 353 1747 
Q 353 2603 823 3093 
Q 1294 3584 2113 3584 
Q 2378 3584 2631 3529 
Q 2884 3475 3122 3366 
z
M 2463 5119 
L 3084 5119 
L 2066 3944 
L 1588 3944 
L 2463 5119 
z
" transform="scale(0.015625)"/>
       <path id="DejaVuSans-144" d="M 2241 5141 
L 2863 5141 
L 1844 3966 
L 1366 3966 
L 2241 5141 
z
M 3513 2113 
L 3513 0 
L 2938 0 
L 2938 2094 
Q 2938 2591 2744 2837 
Q 2550 3084 2163 3084 
Q 1697 3084 1428 2787 
Q 1159 2491 1159 1978 
L 1159 0 
L 581 0 
L 581 3500 
L 1159 3500 
L 1159 2956 
Q 1366 3272 1645 3428 
Q 1925 3584 2291 3584 
Q 2894 3584 3203 3211 
Q 3513 2838 3513 2113 
z
" transform="scale(0.015625)"/>
       <path id="DejaVuSans-70" d="M 1159 525 
L 1159 -1331 
L 581 -1331 
L 581 3500 
L 1159 3500 
L 1159 2969 
Q 1341 3281 1617 3432 
Q 1894 3584 2278 3584 
Q 2916 3584 3314 3078 
Q 3713 2572 3713 1747 
Q 3713 922 3314 415 
Q 2916 -91 2278 -91 
Q 1894 -91 1617 61 
Q 1341 213 1159 525 
z
M 3116 1747 
Q 3116 2381 2855 2742 
Q 2594 3103 2138 3103 
Q 1681 3103 1420 2742 
Q 1159 2381 1159 1747 
Q 1159 1113 1420 752 
Q 1681 391 2138 391 
Q 2594 391 2855 752 
Q 3116 1113 3116 1747 
z
" transform="scale(0.015625)"/>
       <path id="DejaVuSans-Oblique-54" d="M 378 4666 
L 4325 4666 
L 4225 4134 
L 2559 4134 
L 1759 0 
L 1125 0 
L 1925 4134 
L 275 4134 
L 378 4666 
z
" transform="scale(0.015625)"/>
       <path id="DejaVuSans-Oblique-73" d="M 3200 3397 
L 3091 2853 
Q 2863 2978 2609 3040 
Q 2356 3103 2088 3103 
Q 1634 3103 1373 2948 
Q 1113 2794 1113 2528 
Q 1113 2219 1719 2053 
Q 1766 2041 1788 2034 
L 1972 1978 
Q 2547 1819 2739 1644 
Q 2931 1469 2931 1166 
Q 2931 609 2489 259 
Q 2047 -91 1331 -91 
Q 1053 -91 747 -37 
Q 441 16 72 128 
L 184 722 
Q 500 559 806 475 
Q 1113 391 1394 391 
Q 1816 391 2080 572 
Q 2344 753 2344 1031 
Q 2344 1331 1650 1516 
L 1591 1531 
L 1394 1581 
Q 956 1697 753 1886 
Q 550 2075 550 2369 
Q 550 2928 970 3256 
Q 1391 3584 2113 3584 
Q 2397 3584 2667 3537 
Q 2938 3491 3200 3397 
z
" transform="scale(0.015625)"/>
      </defs>
      <use xlink:href="#DejaVuSans-44" transform="translate(0 0.765625)"/>
      <use xlink:href="#DejaVuSans-142" transform="translate(77.001953 0.765625)"/>
      <use xlink:href="#DejaVuSans-75" transform="translate(105.419922 0.765625)"/>
      <use xlink:href="#DejaVuSans-67" transform="translate(168.798828 0.765625)"/>
      <use xlink:href="#DejaVuSans-6f" transform="translate(232.275391 0.765625)"/>
      <use xlink:href="#DejaVuSans-15b" transform="translate(293.457031 0.765625)"/>
      <use xlink:href="#DejaVuSans-107" transform="translate(345.556641 0.765625)"/>
      <use xlink:href="#DejaVuSans-a0" transform="translate(400.537109 0.765625)"/>
      <use xlink:href="#DejaVuSans-6b" transform="translate(432.324219 0.765625)"/>
      <use xlink:href="#DejaVuSans-77" transform="translate(490.234375 0.765625)"/>
      <use xlink:href="#DejaVuSans-61" transform="translate(572.021484 0.765625)"/>
      <use xlink:href="#DejaVuSans-64" transform="translate(633.300781 0.765625)"/>
      <use xlink:href="#DejaVuSans-72" transform="translate(696.777344 0.765625)"/>
      <use xlink:href="#DejaVuSans-61" transform="translate(737.890625 0.765625)"/>
      <use xlink:href="#DejaVuSans-74" transform="translate(799.169922 0.765625)"/>
      <use xlink:href="#DejaVuSans-75" transform="translate(838.378906 0.765625)"/>
      <use xlink:href="#DejaVuSans-20" transform="translate(901.757812 0.765625)"/>
      <use xlink:href="#DejaVuSans-6f" transform="translate(933.544922 0.765625)"/>
      <use xlink:href="#DejaVuSans-6b" transform="translate(994.726562 0.765625)"/>
      <use xlink:href="#DejaVuSans-72" transform="translate(1052.636719 0.765625)"/>
      <use xlink:href="#DejaVuSans-65" transform="translate(1093.75 0.765625)"/>
      <use xlink:href="#DejaVuSans-73" transform="translate(1155.273438 0.765625)"/>
      <use xlink:href="#DejaVuSans-75" transform="translate(1207.373047 0.765625)"/>
      <use xlink:href="#DejaVuSans-20" transform="translate(1270.751953 0.765625)"/>
      <use xlink:href="#DejaVuSans-64" transform="translate(1302.539062 0.765625)"/>
      <use xlink:href="#DejaVuSans-72" transform="translate(1366.015625 0.765625)"/>
      <use xlink:href="#DejaVuSans-67" transform="translate(1407.128906 0.765625)"/>
      <use xlink:href="#DejaVuSans-61" transform="translate(1470.605469 0.765625)"/>
      <use xlink:href="#DejaVuSans-144" transform="translate(1531.884766 0.765625)"/>
      <use xlink:href="#DejaVuSans-20" transform="translate(1595.263672 0.765625)"/>
      <use xlink:href="#DejaVuSans-70" transform="translate(1627.050781 0.765625)"/>
      <use xlink:href="#DejaVuSans-72" transform="translate(1690.527344 0.765625)"/>
      <use xlink:href="#DejaVuSans-119" transform="translate(1731.640625 0.765625)"/>
      <use xlink:href="#DejaVuSans-74" transform="translate(1793.164062 0.765625)"/>
      <use xlink:href="#DejaVuSans-61" transform="translate(1832.373047 0.765625)"/>
      <use xlink:href="#DejaVuSans-20" transform="translate(1893.652344 0.765625)"/>
      <use xlink:href="#DejaVuSans-Oblique-54" transform="translate(1925.439453 0.765625)"/>
      <use xlink:href="#DejaVuSans-32" transform="translate(1993.540208 39.046875) scale(0.7)"/>
      <use xlink:href="#DejaVuSans-5b" transform="translate(2040.810716 0.765625)"/>
      <use xlink:href="#DejaVuSans-Oblique-73" transform="translate(2079.824388 0.765625)"/>
      <use xlink:href="#DejaVuSans-32" transform="translate(2136.573893 39.046875) scale(0.7)"/>
      <use xlink:href="#DejaVuSans-5d" transform="translate(2183.844401 0.765625)"/>
     </g>
    </g>
   </g>
   <g id="line2d_53">
    <path d="M 85.652273 524.070257 
L 98.334091 510.942529 
L 136.379545 471.559344 
L 199.788636 405.920702 
L 288.561364 314.026603 
L 402.697727 195.877047 
L 542.197727 51.472035 
" clip-path="url(#pbd4daa117e)" style="fill: none; stroke: #1f77b4; stroke-width: 1.5; stroke-linecap: square"/>
   </g>
   <g id="line2d_54">
    <defs>
     <path id="m44036ab673" d="M -3 3 
L 3 -3 
M -3 -3 
L 3 3 
" style="stroke: #000000; stroke-width: 0.7"/>
    </defs>
    <g clip-path="url(#pbd4daa117e)">
     <use xlink:href="#m44036ab673" x="85.652273" y="530.368228" style="stroke: #000000; stroke-width: 0.7"/>
     <use xlink:href="#m44036ab673" x="98.334091" y="521.921057" style="stroke: #000000; stroke-width: 0.7"/>
     <use xlink:href="#m44036ab673" x="136.379545" y="466.883302" style="stroke: #000000; stroke-width: 0.7"/>
     <use xlink:href="#m44036ab673" x="199.788636" y="398.79802" style="stroke: #000000; stroke-width: 0.7"/>
     <use xlink:href="#m44036ab673" x="288.561364" y="310.379647" style="stroke: #000000; stroke-width: 0.7"/>
     <use xlink:href="#m44036ab673" x="402.697727" y="194.342923" style="stroke: #000000; stroke-width: 0.7"/>
     <use xlink:href="#m44036ab673" x="542.197727" y="55.147747" style="stroke: #000000; stroke-width: 0.7"/>
    </g>
   </g>
   <g id="line2d_55">
    <g clip-path="url(#pbd4daa117e)">
     <use xlink:href="#m44036ab673" x="85.652273" y="528.962131" style="stroke: #000000; stroke-width: 0.7"/>
     <use xlink:href="#m44036ab673" x="98.334091" y="520.12347" style="stroke: #000000; stroke-width: 0.7"/>
     <use xlink:href="#m44036ab673" x="136.379545" y="467.786669" style="stroke: #000000; stroke-width: 0.7"/>
     <use xlink:href="#m44036ab673" x="199.788636" y="398.132601" style="stroke: #000000; stroke-width: 0.7"/>
     <use xlink:href="#m44036ab673" x="288.561364" y="309.217929" style="stroke: #000000; stroke-width: 0.7"/>
     <use xlink:href="#m44036ab673" x="402.697727" y="192.734276" style="stroke: #000000; stroke-width: 0.7"/>
     <use xlink:href="#m44036ab673" x="542.197727" y="62.676942" style="stroke: #000000; stroke-width: 0.7"/>
    </g>
   </g>
   <g id="line2d_56">
    <g clip-path="url(#pbd4daa117e)">
     <use xlink:href="#m44036ab673" x="85.652273" y="529.528728" style="stroke: #000000; stroke-width: 0.7"/>
     <use xlink:href="#m44036ab673" x="98.334091" y="519.601891" style="stroke: #000000; stroke-width: 0.7"/>
     <use xlink:href="#m44036ab673" x="136.379545" y="464.146257" style="stroke: #000000; stroke-width: 0.7"/>
     <use xlink:href="#m44036ab673" x="199.788636" y="392.081464" style="stroke: #000000; stroke-width: 0.7"/>
     <use xlink:href="#m44036ab673" x="288.561364" y="310.876694" style="stroke: #000000; stroke-width: 0.7"/>
     <use xlink:href="#m44036ab673" x="402.697727" y="191.928622" style="stroke: #000000; stroke-width: 0.7"/>
     <use xlink:href="#m44036ab673" x="542.197727" y="55.85602" style="stroke: #000000; stroke-width: 0.7"/>
    </g>
   </g>
   <g id="line2d_57">
    <defs>
     <path id="m8f3d3465ae" d="M -3 3 
L 3 -3 
M -3 -3 
L 3 3 
" style="stroke: #ff0000; stroke-width: 0.4"/>
    </defs>
    <g clip-path="url(#pbd4daa117e)">
     <use xlink:href="#m8f3d3465ae" x="85.652273" y="529.622621" style="fill: #ff0000; stroke: #ff0000; stroke-width: 0.4"/>
     <use xlink:href="#m8f3d3465ae" x="98.334091" y="520.555409" style="fill: #ff0000; stroke: #ff0000; stroke-width: 0.4"/>
     <use xlink:href="#m8f3d3465ae" x="136.379545" y="466.278562" style="fill: #ff0000; stroke: #ff0000; stroke-width: 0.4"/>
     <use xlink:href="#m8f3d3465ae" x="199.788636" y="396.351376" style="fill: #ff0000; stroke: #ff0000; stroke-width: 0.4"/>
     <use xlink:href="#m8f3d3465ae" x="288.561364" y="310.158577" style="fill: #ff0000; stroke: #ff0000; stroke-width: 0.4"/>
     <use xlink:href="#m8f3d3465ae" x="402.697727" y="193.00263" style="fill: #ff0000; stroke: #ff0000; stroke-width: 0.4"/>
     <use xlink:href="#m8f3d3465ae" x="542.197727" y="57.899342" style="fill: #ff0000; stroke: #ff0000; stroke-width: 0.4"/>
    </g>
   </g>
   <g id="patch_3">
    <path d="M 34.925 558.199219 
L 34.925 3.799219 
" style="fill: none; stroke: #000000; stroke-width: 0.8; stroke-linejoin: miter; stroke-linecap: square"/>
   </g>
   <g id="patch_4">
    <path d="M 592.925 558.199219 
L 592.925 3.799219 
" style="fill: none; stroke: #000000; stroke-width: 0.8; stroke-linejoin: miter; stroke-linecap: square"/>
   </g>
   <g id="patch_5">
    <path d="M 34.925 558.199219 
L 592.925 558.199219 
" style="fill: none; stroke: #000000; stroke-width: 0.8; stroke-linejoin: miter; stroke-linecap: square"/>
   </g>
   <g id="patch_6">
    <path d="M 34.925 3.799219 
L 592.925 3.799219 
" style="fill: none; stroke: #000000; stroke-width: 0.8; stroke-linejoin: miter; stroke-linecap: square"/>
   </g>
   <g id="text_12">
    <!-- $T^2 = 0.0758R^2$ -->
    <g transform="translate(85.652273 396.351376) scale(0.1 -0.1)">
     <defs>
      <path id="DejaVuSans-3d" d="M 678 2906 
L 4684 2906 
L 4684 2381 
L 678 2381 
L 678 2906 
z
M 678 1631 
L 4684 1631 
L 4684 1100 
L 678 1100 
L 678 1631 
z
" transform="scale(0.015625)"/>
      <path id="DejaVuSans-2e" d="M 684 794 
L 1344 794 
L 1344 0 
L 684 0 
L 684 794 
z
" transform="scale(0.015625)"/>
      <path id="DejaVuSans-37" d="M 525 4666 
L 3525 4666 
L 3525 4397 
L 1831 0 
L 1172 0 
L 2766 4134 
L 525 4134 
L 525 4666 
z
" transform="scale(0.015625)"/>
     </defs>
     <use xlink:href="#DejaVuSans-Oblique-54" transform="translate(0 0.765625)"/>
     <use xlink:href="#DejaVuSans-32" transform="translate(68.100755 39.046875) scale(0.7)"/>
     <use xlink:href="#DejaVuSans-3d" transform="translate(134.853685 0.765625)"/>
     <use xlink:href="#DejaVuSans-30" transform="translate(238.125169 0.765625)"/>
     <use xlink:href="#DejaVuSans-2e" transform="translate(301.748216 0.765625)"/>
     <use xlink:href="#DejaVuSans-30" transform="translate(333.535326 0.765625)"/>
     <use xlink:href="#DejaVuSans-37" transform="translate(397.158372 0.765625)"/>
     <use xlink:href="#DejaVuSans-35" transform="translate(460.781419 0.765625)"/>
     <use xlink:href="#DejaVuSans-38" transform="translate(524.404466 0.765625)"/>
     <use xlink:href="#DejaVuSans-Oblique-52" transform="translate(588.027513 0.765625)"/>
     <use xlink:href="#DejaVuSans-32" transform="translate(664.526706 39.046875) scale(0.7)"/>
    </g>
   </g>
  </g>
 </g>
 <defs>
  <clipPath id="pbd4daa117e">
   <rect x="34.925" y="3.799219" width="558" height="554.4"/>
  </clipPath>
 </defs>
</svg>
